<svg width="28" height="29" viewBox="0 0 28 29" fill="none" xmlns="http://www.w3.org/2000/svg">
<path d="M21.84 19.8199H25.48V21.7799C25.48 23.4767 24.0968 24.8599 22.4 24.8599H3.36003C2.54362 24.8584 1.76107 24.5334 1.18378 23.9561C0.606484 23.3789 0.28151 22.5963 0.280029 21.7799V7.21989C0.280029 5.52309 1.66323 4.13989 3.36003 4.13989H22.4C24.0968 4.13989 25.48 5.52309 25.48 7.21989V9.17989H21.84C18.9056 9.17989 16.52 11.5655 16.52 14.4999C16.52 17.4343 18.9056 19.8199 21.84 19.8199ZM27.72 12.5399V16.4599C27.72 17.3895 26.9696 18.1399 26.04 18.1399H21.84C20.8746 18.1399 19.9488 17.7564 19.2662 17.0738C18.5835 16.3911 18.2 15.4653 18.2 14.4999C18.2 13.5345 18.5835 12.6087 19.2662 11.926C19.9488 11.2434 20.8746 10.8599 21.84 10.8599H26.04C26.9696 10.8599 27.72 11.6103 27.72 12.5399ZM22.68 14.4999C22.68 14.0351 22.3048 13.6599 21.84 13.6599C21.3752 13.6599 21 14.0351 21 14.4999C21 14.9647 21.3752 15.3399 21.84 15.3399C22.3048 15.3399 22.68 14.9647 22.68 14.4999Z" fill="white"/>
</svg>
