<svg width="16" height="12" viewBox="0 0 16 12" fill="none" xmlns="http://www.w3.org/2000/svg">
<path d="M0.861673 5.52861L5.52834 0.861946C5.65408 0.740507 5.82248 0.673311 5.99727 0.67483C6.17207 0.676349 6.33928 0.746462 6.46289 0.870067C6.58649 0.993672 6.6566 1.16088 6.65812 1.33568C6.65964 1.51048 6.59245 1.67888 6.47101 1.80461L2.94234 5.33328H14.6663C14.8432 5.33328 15.0127 5.40352 15.1377 5.52854C15.2628 5.65357 15.333 5.82313 15.333 5.99995C15.333 6.17676 15.2628 6.34633 15.1377 6.47135C15.0127 6.59637 14.8432 6.66661 14.6663 6.66661H2.94234L6.47101 10.1953C6.53468 10.2568 6.58547 10.3303 6.62041 10.4117C6.65535 10.493 6.67374 10.5805 6.67451 10.669C6.67528 10.7575 6.65841 10.8453 6.62489 10.9272C6.59137 11.0092 6.54187 11.0836 6.47927 11.1462C6.41668 11.2088 6.34224 11.2583 6.26031 11.2918C6.17838 11.3253 6.09059 11.3422 6.00207 11.3414C5.91355 11.3407 5.82607 11.3223 5.74474 11.2873C5.6634 11.2524 5.58984 11.2016 5.52834 11.1379L0.861673 6.47128C0.736692 6.34626 0.666483 6.17672 0.666483 5.99995C0.666483 5.82317 0.736692 5.65363 0.861673 5.52861Z" fill="white"/>
</svg>
