<svg width="16" height="12" viewBox="0 0 16 12" fill="none" xmlns="http://www.w3.org/2000/svg">
<path d="M15.1383 5.52861L10.4717 0.861946C10.3459 0.740507 10.1775 0.673311 10.0027 0.67483C9.82793 0.676349 9.66072 0.746462 9.53711 0.870067C9.41351 0.993672 9.3434 1.16088 9.34188 1.33568C9.34036 1.51048 9.40755 1.67888 9.52899 1.80461L13.0577 5.33328H1.33366C1.15685 5.33328 0.987279 5.40352 0.862254 5.52854C0.73723 5.65357 0.666992 5.82313 0.666992 5.99995C0.666992 6.17676 0.73723 6.34633 0.862254 6.47135C0.987279 6.59637 1.15685 6.66661 1.33366 6.66661H13.0577L9.52899 10.1953C9.46532 10.2568 9.41453 10.3303 9.37959 10.4117C9.34465 10.493 9.32626 10.5805 9.32549 10.669C9.32472 10.7575 9.34159 10.8453 9.37511 10.9272C9.40863 11.0092 9.45813 11.0836 9.52073 11.1462C9.58332 11.2088 9.65776 11.2583 9.73969 11.2918C9.82162 11.3253 9.90941 11.3422 9.99793 11.3414C10.0864 11.3407 10.1739 11.3223 10.2553 11.2873C10.3366 11.2524 10.4102 11.2016 10.4717 11.1379L15.1383 6.47128C15.2633 6.34626 15.3335 6.17672 15.3335 5.99995C15.3335 5.82317 15.2633 5.65363 15.1383 5.52861Z" fill="white"/>
</svg>
