<svg width="148" height="48" viewBox="0 0 148 48" fill="none" xmlns="http://www.w3.org/2000/svg">
<path d="M15.5958 17.326V19.3626C13.4277 19.3626 12.8683 19.0114 12.029 17.8176C11.4695 20.4862 9.02178 22.3823 6.29427 22.3121C3.00728 22.3121 0.279785 19.7137 0.279785 16.4131C0.279785 16.3428 0.279785 16.2726 0.279785 16.2726V14.3063H2.23799V16.0619C2.23799 18.8008 3.77658 20.4862 6.36421 20.4862C8.60216 20.4862 10.3506 18.9412 10.3506 17.1856C10.4205 16.2726 9.72114 15.4299 8.81197 15.3597C8.74204 15.3597 8.6721 15.3597 8.60216 15.3597C8.46229 15.3597 8.39236 15.3597 8.32242 15.3597V13.5338H9.09171C10.5604 13.4635 11.8892 14.3063 12.5186 15.6406C13.2179 16.9749 13.9173 17.4665 14.8964 17.4665H15.5958V17.326ZM8.95184 26.1044H6.99363V24.138H8.95184V26.1044ZM5.59491 26.1044H3.63671V24.138H5.59491V26.1044ZM20.0717 16.1321C20.0717 18.239 19.0926 19.2924 17.1343 19.2924H15.2461V17.2558H16.7147C17.2043 17.326 17.6938 17.1153 17.9736 16.694C18.1135 16.2726 18.1135 15.8512 18.1135 15.4299V11.2865H20.0717V16.1321ZM20.0717 23.1548H18.1834V21.1885H20.0717V23.1548ZM28.8137 19.3626H25.6665C25.3868 21.2587 23.7783 22.3121 21.4004 22.3121V20.6267C23.009 20.6267 23.8482 19.7839 23.8482 18.1687V11.427H25.8064V17.3962H28.8137V19.3626ZM41.3322 19.3626H37.6256C37.0661 19.3626 36.5765 19.2221 36.087 18.9412C35.6674 18.7305 35.3177 18.4496 34.968 18.0985C33.8491 18.871 32.5203 19.3626 31.1215 19.3626H28.1842V17.326H31.1215C31.6111 17.326 32.0307 17.326 32.5203 17.1856C32.9399 17.1153 33.4294 16.9046 33.7791 16.6237C33.3595 16.0619 32.8699 15.6406 32.3105 15.2894C31.681 14.8681 30.9817 14.5169 30.2823 14.3063V12.4804C31.681 11.5674 33.3595 11.0758 35.038 11.0056C36.8563 11.0056 38.6746 11.6376 40.0034 12.8315C39.7237 13.5338 39.3041 14.236 38.7446 14.7978C38.1851 15.5703 37.4857 16.2024 36.7164 16.7642C36.9262 16.9749 37.136 17.1153 37.4158 17.1856C37.6955 17.1856 37.9053 17.2558 38.1851 17.1856H41.4721V19.3626H41.3322ZM37.4158 13.5338C36.6465 13.0422 35.8073 12.8315 34.8981 12.8315C33.9889 12.8315 33.0098 13.1124 32.2405 13.5338C33.4294 13.9551 34.4085 14.6574 35.1778 15.6406C35.6674 15.3597 36.087 15.0787 36.4367 14.6574C36.7864 14.3063 37.136 13.9551 37.4158 13.5338ZM45.7382 16.1321C45.7382 18.239 44.7591 19.2924 42.8009 19.2924H40.7727V17.2558H42.4512C42.9407 17.326 43.4303 17.1153 43.71 16.694C43.8499 16.2726 43.8499 15.8512 43.8499 15.4299V7.98584H45.8081V16.1321H45.7382ZM49.5147 19.3626H47.5565V7.98584H49.5147V19.3626ZM72.3138 19.3626H60.4247C56.7181 19.3626 54.8998 17.6771 54.8998 14.3765V11.3567H56.858V14.3765C56.788 15.2894 57.1377 16.2024 57.8371 16.7642C58.5364 17.1856 59.3757 17.3962 60.2149 17.326H66.1595C66.649 17.3962 67.0686 17.1153 67.3484 16.694C67.4882 16.2726 67.5582 15.781 67.5582 15.3597V11.2865H69.5164V15.2192C69.5863 15.9215 69.4465 16.6237 69.0968 17.2558H72.3838L72.3138 19.3626ZM61.4738 11.3567H59.5156V9.39038H61.4738V11.3567ZM64.7607 11.3567H62.8025V9.39038H64.7607V11.3567ZM79.797 19.3626H71.7543V17.326H73.6426C74.1322 17.3962 74.6217 17.1153 74.8315 16.694C74.9714 16.2726 75.0413 15.781 75.0413 15.3597V11.2865H76.9995V15.2192C77.0695 15.9215 76.9296 16.6237 76.5799 17.2558H79.8669V19.3626H79.797ZM76.9296 23.1548H74.9714V21.1885H76.9296V23.1548ZM73.5727 23.1548H71.6145V21.1885H73.5727V23.1548ZM84.4827 23.2251H82.5245V21.2587H84.4827V23.2251ZM87.42 19.3626H79.3074V17.326H81.1258C81.6153 17.3962 82.0349 17.1153 82.3147 16.694C82.4545 16.2726 82.5245 15.781 82.5245 15.3597V11.2865H84.4827V15.2192C84.5526 15.9215 84.4128 16.6237 84.0631 17.2558H87.42V19.3626ZM91.826 16.1321C91.826 18.239 90.8469 19.2924 88.8887 19.2924H86.8605V17.2558H88.539C89.0285 17.326 89.5181 17.1153 89.7978 16.694C89.9377 16.2726 89.9377 15.8512 89.9377 15.4299V7.98584H91.8959V16.1321H91.826ZM95.6025 19.3626H93.6443V7.98584H95.6025V19.3626Z" fill="white"/>
<path d="M3.77655 31.7928H3.00725V30.8798H3.77655V31.7928ZM2.37783 31.7928H1.60853V30.8798H2.37783V31.7928ZM5.94455 38.3239H5.455C4.4759 38.3941 3.63667 37.7621 3.4968 36.7789C3.14712 37.3407 2.5177 37.6216 1.88828 37.5514C0.839239 37.5514 0 36.4278 0 35.0934C0 33.6187 0.769297 32.5653 1.95821 32.5653H4.19615V35.9362C4.19615 36.9896 4.68571 37.6216 5.52494 37.6216H5.94455V38.3239ZM3.4968 34.953V33.1271H2.16802C1.32879 33.1271 0.769299 33.9698 0.769299 35.0934C0.769299 36.1468 1.32879 37.0598 2.16802 37.0598C3.00725 36.9896 3.4968 36.3575 3.4968 34.953ZM14.0571 38.3239H5.66481V37.6216H12.029C12.029 37.4812 12.029 37.3407 12.029 37.2705C12.029 35.5148 11.1198 34.4614 9.44135 34.4614C8.67205 34.3912 7.90277 34.8125 7.48315 35.5148C7.41321 35.3744 7.2034 35.1637 6.85372 34.8828C7.48314 34.1103 8.46224 33.6889 9.44135 33.7591C11.5394 33.7591 12.8682 35.1637 12.8682 37.3407V37.6918H13.9872L14.0571 38.3239ZM16.365 33.5485V36.4278C16.365 37.6216 15.8755 38.2537 14.8264 38.2537H13.9173V37.5514H14.6166C14.9663 37.6216 15.316 37.4109 15.5258 37.13C15.6657 36.7789 15.7356 36.498 15.6656 36.1468V33.5485H16.365ZM16.365 39.8689H15.5957V38.9559H16.365V39.8689ZM14.9663 39.8689H14.197V38.9559H14.9663V39.8689ZM21.3305 38.3239H19.5121C19.3723 39.3773 18.4631 40.0795 17.414 40.0093V39.3071C18.3932 39.3071 18.8827 38.7452 18.8827 37.5514V33.5485H19.5821V37.5514H21.3305V38.3239ZM26.9953 36.8491C26.9953 37.4812 26.7855 38.043 26.4358 38.5346C26.0162 39.0261 25.4567 39.2368 24.8273 39.2368C24.1279 39.3071 23.4285 38.9559 23.0089 38.3239H20.9808V37.6216H22.6592C22.5893 37.4109 22.5893 37.13 22.5893 36.9193C22.5893 36.2873 22.7991 35.6553 23.1488 35.2339C23.5684 34.8125 24.1279 34.5316 24.7573 34.5316C25.3867 34.5316 25.9462 34.7423 26.3658 35.2339C26.7855 35.6553 26.9953 36.2171 26.9953 36.8491ZM26.156 36.7789C26.156 36.3575 26.0861 36.0064 25.8763 35.6553C25.6665 35.3041 25.2469 35.0934 24.8972 35.1637C24.4776 35.1637 24.058 35.3744 23.8481 35.7255C23.6383 36.0766 23.4985 36.498 23.5684 36.9193C23.5684 37.3407 23.6383 37.6918 23.8481 38.043C24.058 38.3941 24.4776 38.6048 24.8972 38.5346C25.6665 38.5346 26.156 37.9727 26.156 36.7789ZM33.2895 31.7928H32.5202V30.8798H33.2895V31.7928ZM31.9607 31.7928H31.1914V30.8798H31.9607V31.7928ZM35.5274 38.3239H35.0379C34.0588 38.3941 33.2196 37.7621 33.0797 36.7789C32.73 37.3407 32.1006 37.6216 31.4712 37.5514C30.4221 37.5514 29.5829 36.4278 29.5829 35.0934C29.5829 33.6187 30.3522 32.5653 31.5411 32.5653H33.779V35.9362C33.779 36.9896 34.2686 37.6216 35.1078 37.6216H35.5274V38.3239ZM33.0797 34.953V33.1271H31.7509C30.9117 33.1271 30.3522 33.9698 30.3522 35.0934C30.3522 36.1468 30.9117 37.0598 31.7509 37.0598C32.5901 36.9896 33.0098 36.3575 33.0797 34.953ZM37.8353 33.5485V36.4278C37.8353 37.6216 37.3458 38.2537 36.2967 38.2537H35.3876V37.5514H36.0869C36.4366 37.6216 36.7863 37.4109 36.9961 37.13C37.136 36.7789 37.2059 36.498 37.136 36.1468V33.5485H37.8353ZM37.8353 39.8689H37.066V38.9559H37.8353V39.8689ZM36.4366 39.8689H35.6673V38.9559H36.4366V39.8689ZM41.0524 33.5485V37.4109C41.0524 39.0964 40.423 39.9391 38.8844 40.0093V39.3071C39.8635 39.3071 40.353 38.7452 40.353 37.5514V33.5485H41.0524ZM44.759 38.3239H43.9198C43.5701 38.3239 43.2204 38.1834 42.9407 37.9025C42.591 37.5514 42.4511 37.13 42.521 36.6384V31.5119H43.2903V36.1468C43.2903 36.498 43.3603 36.8491 43.5001 37.2002C43.64 37.4109 43.8498 37.4812 44.0596 37.5514C44.2694 37.5514 44.4792 37.5514 44.759 37.5514V38.3239ZM51.263 38.3239H49.6545C49.3048 38.9559 48.6055 39.2368 47.9061 39.2368C47.2067 39.3071 46.5074 38.9559 46.0878 38.3239H44.5492V37.6216H45.808C45.7381 37.4109 45.7381 37.13 45.7381 36.9193C45.7381 36.2873 45.9479 35.7255 46.2976 35.2339C46.7172 34.8125 47.2767 34.5316 47.9061 34.5316C48.5355 34.5316 49.095 34.7423 49.5146 35.2339C49.8643 35.7255 50.0741 36.2873 50.0741 36.9193C50.0741 37.2002 50.0741 37.4109 50.0042 37.6216H51.263V38.3239ZM49.2349 36.7789C49.2349 36.3575 49.1649 36.0064 48.9551 35.6553C48.7453 35.3041 48.3957 35.0934 47.976 35.1637C47.5564 35.1637 47.1368 35.3744 46.927 35.7255C46.7172 36.0766 46.5773 36.498 46.6473 36.9193C46.6473 37.3407 46.7172 37.6918 46.927 38.043C47.1368 38.3941 47.5564 38.6048 47.976 38.5346C48.8153 38.5346 49.2349 37.9727 49.2349 36.7789ZM52.8016 31.6523H52.0323V30.7394H52.8016V31.6523ZM53.431 32.776H52.6617V31.863H53.431V32.776ZM52.1023 32.776H51.333V31.863H52.1023V32.776ZM54.6199 38.3239H51.0532V37.6216H51.7526C52.1023 37.6918 52.4519 37.4812 52.6617 37.2002C52.8016 36.8491 52.8716 36.498 52.8016 36.2171V33.6187H53.501V36.498C53.501 36.8491 53.431 37.2705 53.2912 37.6216H54.6199V38.3239ZM56.8579 32.776H56.0886V31.863H56.8579V32.776ZM55.5291 32.776H54.7598V31.863H55.5291V32.776ZM58.0468 38.3239H54.4801V37.6216H55.1794C55.5291 37.6918 55.8788 37.4812 56.0886 37.2002C56.2285 36.8491 56.2984 36.498 56.2285 36.2171V33.6187H56.9278V36.498C56.9278 36.8491 56.8579 37.2705 56.718 37.6216H58.0468V38.3239ZM66.2293 33.5485V36.4278C66.2293 37.6216 65.7398 38.2537 64.6907 38.2537H57.7671V37.5514H58.7462C59.4455 37.5514 59.7952 37.13 59.8651 36.2171V33.5485H60.5645V36.4278C60.5645 36.7789 60.4946 37.13 60.3547 37.4812V37.5514H61.7534C62.4528 37.5514 62.6626 37.2002 62.6626 36.1468V33.5485H63.3619V36.4278C63.3619 36.7789 63.292 37.2002 63.1521 37.5514H64.411C65.1803 37.5514 65.46 37.2002 65.46 36.1468V33.5485H66.2293ZM68.3973 38.3239H67.698V31.5821H68.3973V38.3239ZM74.8314 31.7928H74.0621V30.8798H74.8314V31.7928ZM73.4327 31.7928H72.6634V30.8798H73.4327V31.7928ZM77.0694 38.3239H76.5798C75.6007 38.3941 74.7615 37.7621 74.6216 36.7789C74.2719 37.3407 73.6425 37.6216 73.0131 37.5514C71.9641 37.5514 71.1248 36.4278 71.1248 35.0934C71.1248 33.6187 71.8941 32.5653 73.083 32.5653H75.321V35.9362C75.321 36.9896 75.8105 37.6216 76.6498 37.6216H77.0694V38.3239ZM74.5517 34.953V33.1271H73.2229C72.3837 33.1271 71.8242 33.9698 71.8242 35.0934C71.8242 36.1468 72.3837 37.0598 73.2229 37.0598C74.0621 36.9896 74.5517 36.3575 74.5517 34.953ZM85.2519 38.3239H76.7896V37.6216H77.7687C78.538 37.6216 78.8877 37.0598 78.8877 36.0064V34.1103H79.5871V35.9362C80.3564 34.4614 81.6152 33.6187 82.8041 33.6187C84.4826 33.6187 85.3218 34.8125 85.3218 37.2002C85.3218 37.4812 85.2519 37.8323 85.2519 38.3239ZM84.5525 37.5514C84.5525 37.3407 84.5525 37.13 84.5525 36.9193C84.5525 35.3041 83.8532 34.1805 82.7342 34.1805C81.4753 34.1805 79.9367 35.6553 79.3773 37.3407V37.5514H84.5525ZM89.9376 38.3239H88.1192C87.9794 39.3773 87.0702 40.0795 86.0212 40.0093V39.3071C87.0003 39.3071 87.4898 38.7452 87.4898 37.5514V33.5485H88.1892V37.5514H89.9376V38.3239ZM93.7141 32.776H92.9448V31.863H93.7141V32.776ZM95.5325 35.9362C95.6723 37.13 94.7632 38.1834 93.5742 38.3239C93.5043 38.3239 93.4344 38.3239 93.3644 38.3239H89.6578V37.6216H91.686C91.3363 37.13 91.1265 36.5682 91.1964 36.0064C91.0566 34.8125 91.9657 33.7591 93.1546 33.6187C93.2246 33.6187 93.2945 33.6187 93.3644 33.6187C94.6932 33.5485 95.5325 34.5316 95.5325 35.9362ZM94.6932 35.8659C94.6932 34.8125 94.2037 34.1805 93.3644 34.1805C92.4553 34.1805 91.9657 34.8828 91.9657 36.0064C91.9657 37.0598 92.4553 37.6918 93.3644 37.6918C94.2736 37.6918 94.6932 37.0598 94.6932 35.8659Z" fill="white"/>
<path fill-rule="evenodd" clip-rule="evenodd" d="M127.352 0L136.833 5.57237V3.95003H142.452V8.81704L148 12.0617V32.5172L142.452 29.202V15.2358L127.352 6.41881L112.182 15.2358V31.036C110.215 30.9654 108.319 31.4592 106.633 32.5172V11.9912L116.957 5.99559L127.352 0ZM122.576 15.5885H126.509V19.5386H122.576V15.5885ZM128.124 15.5885H132.057V19.5386H128.124V15.5885ZM132.057 24.9699H128.124V21.0198H132.057V24.9699ZM126.509 24.9699H122.576V21.0198H126.509V24.9699Z" fill="white"/>
<path fill-rule="evenodd" clip-rule="evenodd" d="M127.001 47.8942C127.211 48.0353 127.422 48.0353 127.633 47.8942L138.729 41.4754L147.649 36.3263C147.859 36.1852 148 35.9736 148 35.762C148 35.5504 147.859 35.3388 147.649 35.1977L135.709 28.2851L134.937 27.8619C134.726 27.7208 134.515 27.7208 134.305 27.8619L122.646 34.5629C122.365 34.7039 122.225 35.1271 122.436 35.4093C122.506 35.4798 122.576 35.6209 122.646 35.6209L127.001 38.1602C127.211 38.3013 127.422 38.3013 127.633 38.1602L133.111 34.9861C133.321 34.9155 133.532 34.9155 133.743 34.9861L135.077 35.762C135.358 35.9736 135.499 36.3263 135.288 36.6789C135.218 36.7495 135.147 36.82 135.077 36.8906L127.562 41.2638C127.352 41.4049 127.141 41.4049 126.93 41.2638L116.396 35.1977C112.041 32.6584 110.075 33.2932 106.914 35.1271C106.633 35.3388 106.563 35.6914 106.704 35.9736C106.774 36.1147 106.844 36.1852 106.985 36.2557L127.001 47.8942Z" fill="white"/>
</svg>
