<svg width="1440" height="674" viewBox="0 0 1440 674" fill="none" xmlns="http://www.w3.org/2000/svg">
<g clip-path="url(#clip0_1_61)">
<rect width="1440" height="674" fill="url(#paint0_linear_1_61)" fill-opacity="0.06"/>
<rect x="0.5" y="0.5" width="1439" height="673" stroke="url(#paint1_linear_1_61)" stroke-opacity="0.2"/>
<g opacity="0.5" filter="url(#filter0_f_1_61)">
<circle cx="1286.5" cy="98.5" r="193.5" fill="#06653D"/>
</g>
<g opacity="0.5" filter="url(#filter1_f_1_61)">
<circle cx="89" cy="497" r="201" fill="#06653D"/>
</g>
<g filter="url(#filter2_b_1_61)">
<rect width="1440" height="674" fill="url(#paint2_linear_1_61)" fill-opacity="0.32"/>
</g>
<path d="M-307 538.745L-286.748 519.167C-286.032 518.475 -284.916 518.415 -284.13 519.026L-274.327 526.651C-273.399 527.373 -272.052 527.142 -271.417 526.154L-266.74 518.879C-266.372 518.306 -265.738 517.96 -265.058 517.96H-255.815C-255.113 517.96 -254.462 517.592 -254.1 516.989L-251.701 512.99C-251.031 511.874 -249.492 511.685 -248.572 512.605L-241.923 519.254C-241.83 519.347 -241.746 519.449 -241.673 519.559L-237.483 525.844L-233.899 531.578L-232.068 534.325C-231.485 535.199 -230.324 535.473 -229.412 534.952L-226.477 533.275C-226.175 533.102 -225.833 533.011 -225.485 533.011H-222.713C-222.527 533.011 -222.342 533.037 -222.163 533.088L-218.45 534.149C-217.804 534.334 -217.109 534.182 -216.599 533.745L-208.188 526.534C-207.684 526.103 -206.999 525.949 -206.36 526.123L-200.083 527.835C-199.702 527.939 -199.299 527.928 -198.925 527.803L-193.357 525.947C-193.153 525.879 -192.939 525.844 -192.725 525.844H-185.051C-184.251 525.844 -183.528 525.367 -183.213 524.632L-177.343 510.935C-177.303 510.841 -177.255 510.75 -177.201 510.663L-173.997 505.537C-173.802 505.225 -173.525 504.972 -173.196 504.808L-166.822 501.621C-166.63 501.525 -166.455 501.398 -166.303 501.246L-163.315 498.259C-163.075 498.018 -162.777 497.843 -162.451 497.75L-157.932 496.459L-150.226 495.058C-150.108 495.036 -149.988 495.026 -149.868 495.026H-146.45C-145.996 495.026 -145.555 494.871 -145.201 494.587L-142.165 492.159L-140.367 490.81C-139.72 490.325 -138.845 490.277 -138.149 490.688L-125.091 498.404C-124.206 498.927 -123.069 498.694 -122.461 497.865L-108.56 478.908C-108.079 478.253 -107.25 477.953 -106.462 478.15L-88.8088 482.564C-88.1208 482.736 -87.5753 483.259 -87.3752 483.94L-84.3084 494.368C-84.1829 494.794 -83.919 495.167 -83.5583 495.426L-67.7899 506.78C-66.9058 507.417 -65.6748 507.229 -65.0212 506.357L-56.048 494.392C-55.6703 493.888 -55.0775 493.592 -54.4479 493.592H-40.6337C-39.6671 493.592 -38.8388 492.901 -38.6659 491.95L-36.5748 480.448C-36.3363 479.136 -34.9052 478.421 -33.7126 479.017L-27.4944 482.126C-26.6582 482.544 -25.644 482.327 -25.052 481.604L-21.111 476.787C-20.3279 475.83 -18.8723 475.806 -18.0579 476.736L-14.8323 480.423C-14.6771 480.6 -14.4917 480.749 -14.2848 480.862L-7.11719 484.772C-6.852 484.916 -6.62302 485.119 -6.44744 485.365L0.452494 495.026L4.77665 499.89C5.54117 500.751 6.87206 500.79 7.68576 499.976L8.14165 499.52C8.27054 499.391 8.3812 499.245 8.47057 499.086L13.8937 489.445C14.3995 488.545 15.5063 488.179 16.4492 488.598L25.673 492.697C26.7519 493.177 28.0093 492.622 28.3827 491.502L31.9014 480.945C31.9576 480.777 32.036 480.616 32.1346 480.468L38.9796 470.2C39.0944 470.028 39.1817 469.839 39.2386 469.64L40.5658 464.995C41.072 463.223 43.5023 463.021 44.2946 464.684L47.7645 471.972C48.411 473.329 50.2681 473.515 51.1703 472.312L53.8099 468.792C54.6731 467.641 56.4327 467.751 57.1465 469L60.7938 475.383C61.1499 476.006 61.8126 476.391 62.5303 476.391H69.8142C70.3704 476.391 70.9014 476.159 71.2798 475.752L78.1381 468.366C79.0603 467.372 80.6825 467.565 81.3469 468.746L85.4032 475.958C85.9711 476.967 87.2753 477.285 88.2438 476.649L107.265 464.166C108.346 463.456 109.807 463.945 110.244 465.163L127.107 512.139C127.785 514.029 130.512 513.853 130.943 511.893L135.789 489.816C135.864 489.472 136.028 489.155 136.265 488.896L149.708 474.172C150.411 473.402 151.589 473.301 152.413 473.942L155.864 476.626C156.72 477.293 157.952 477.154 158.639 476.314L161.806 472.444C162.747 471.293 164.57 471.535 165.178 472.891L178.608 502.803C179.129 503.965 180.588 504.35 181.615 503.597L198.925 490.902C200.014 490.104 201.564 490.591 202.001 491.869L208.889 512.043C209.539 513.947 212.278 513.807 212.73 511.846L223.388 465.663C223.706 464.281 225.322 463.661 226.483 464.474L229.937 466.891C230.691 467.419 231.708 467.364 232.401 466.758L236.389 463.268C236.753 462.949 237.221 462.773 237.706 462.773H248.05C248.728 462.773 249.36 462.429 249.729 461.86L255.418 453.066C256.187 451.879 257.91 451.842 258.729 452.995L272.545 472.466C272.705 472.691 272.91 472.881 273.147 473.023L281.741 478.18C282.72 478.767 283.99 478.418 284.531 477.413L287.988 470.992C288.337 470.345 289.014 469.941 289.749 469.941H297.266C297.661 469.941 298.047 469.824 298.375 469.605L307.746 463.357C308.294 462.992 308.987 462.92 309.599 463.164L314.08 464.957C315.045 465.343 316.146 464.925 316.611 463.994L341.973 413.269C342.187 412.84 342.549 412.502 342.992 412.317L350.298 409.273C350.693 409.109 351.024 408.822 351.244 408.456L366.536 382.967C367.277 381.732 369.041 381.662 369.879 382.834L384.958 403.947C385.561 404.79 386.707 405.033 387.6 404.508L397.601 398.625C397.992 398.395 398.294 398.038 398.456 397.613L402.916 385.904C403.412 384.602 405.054 384.193 406.102 385.111L426.307 402.791C426.672 403.11 427.14 403.286 427.624 403.286H434.172C434.963 403.286 435.679 403.752 436 404.476L466.118 472.42C466.231 472.676 466.29 472.952 466.29 473.231V490.453C466.29 490.634 466.314 490.814 466.363 490.988L476.755 528.402C476.933 529.043 477.418 529.554 478.049 529.764L491.244 534.163C491.782 534.342 492.219 534.742 492.445 535.263L513.59 583.898L520.204 597.127C520.543 597.804 521.235 598.232 521.993 598.232H531.883C532.544 598.232 533.163 598.559 533.536 599.106L542.512 612.271C543.154 613.213 544.452 613.429 545.364 612.745L553.993 606.273C554.687 605.752 555.637 605.738 556.346 606.239L565.28 612.546C566.333 613.289 567.803 612.857 568.287 611.663L588.756 561.128C589.377 559.593 591.489 559.436 592.331 560.861L598.372 571.085C599.007 572.159 600.459 572.396 601.402 571.58L662.562 518.664C663.069 518.224 663.763 518.069 664.41 518.25L679.627 522.511C680.583 522.779 681.59 522.305 681.993 521.397L692.23 498.363C692.551 497.641 693.267 497.176 694.058 497.176H712.567C713.182 497.176 713.763 496.893 714.142 496.408L725.157 482.333C725.858 481.438 727.163 481.306 728.029 482.043L745.376 496.821C745.648 497.053 745.853 497.354 745.97 497.692L752.88 517.732C752.932 517.884 753.003 518.029 753.089 518.163L772.883 548.879C773.386 549.66 774.361 549.991 775.236 549.679L793.268 543.239C793.621 543.112 793.932 542.889 794.165 542.594L804.559 529.428L810.75 521.379C811.32 520.638 812.329 520.39 813.177 520.785L831.392 529.242C831.656 529.364 831.943 529.428 832.234 529.428H845.158C846.131 529.428 846.964 528.727 847.129 527.768L850.384 508.888C850.412 508.725 850.46 508.567 850.527 508.416L852.443 504.105C852.906 503.063 854.145 502.619 855.165 503.129L866.193 508.643L871.297 511.195C872.386 511.74 873.704 511.194 874.089 510.039L878.255 497.54C878.335 497.299 878.46 497.076 878.624 496.882L895.699 476.644C896.643 475.525 898.43 475.766 899.044 477.095L910.627 502.193L920.66 517.96L928.093 527.872C928.743 528.738 929.964 528.93 930.848 528.305L957.853 509.202C958.352 508.849 958.986 508.744 959.572 508.916L969.971 511.975C970.516 512.135 971.103 512.056 971.586 511.758L994.429 497.648C994.915 497.348 995.25 496.853 995.348 496.289L1000.85 464.68C1000.9 464.369 1001.03 464.075 1001.22 463.823L1025.68 431.208C1026.28 430.405 1027.38 430.172 1028.26 430.664L1047.45 441.46C1048.58 442.094 1050 441.506 1050.35 440.261L1058.44 411.623C1058.74 410.575 1059.82 409.956 1060.87 410.231L1089.98 417.824C1091.06 418.106 1092.16 417.447 1092.43 416.361L1104.26 367.704C1104.56 366.467 1105.93 365.822 1107.07 366.376L1123.76 374.434C1124.78 374.926 1126.01 374.475 1126.46 373.438L1173.18 267.309C1173.98 265.508 1176.62 265.814 1176.98 267.749L1180.51 286.733C1180.86 288.575 1183.32 288.977 1184.23 287.338L1206.4 247.429C1206.54 247.174 1206.73 246.954 1206.97 246.783L1277.56 195.439L1305.89 177.737C1306.11 177.594 1306.31 177.408 1306.46 177.189L1353.49 110.105C1354.24 109.037 1355.79 108.96 1356.64 109.948L1375.75 132.145C1376.52 133.035 1377.89 133.077 1378.7 132.235L1401.23 109.067C1401.84 108.434 1402.8 108.279 1403.58 108.686L1419.27 116.842C1419.84 117.14 1420.23 117.697 1420.32 118.336L1441.15 265.43C1441.44 267.545 1444.41 267.781 1445.04 265.74L1463.98 204.447C1464.62 202.383 1467.62 202.656 1467.88 204.802L1487.53 370.127C1487.54 370.253 1487.57 370.379 1487.61 370.5L1509.64 439.356C1510.05 440.653 1511.62 441.165 1512.72 440.365L1554.62 409.952C1554.81 409.81 1554.98 409.632 1555.12 409.429L1580.54 370.585C1580.66 370.408 1580.74 370.213 1580.8 370.008L1601.59 292.385C1601.91 291.172 1603.26 290.555 1604.39 291.104L1625.55 301.379C1626.52 301.852 1627.7 301.463 1628.2 300.502L1722.5 118.925C1722.97 118.013 1724.06 117.608 1725.02 117.99L1752 128.785" stroke="#06652E" stroke-opacity="0.31" stroke-width="5"/>
</g>
<defs>
<filter id="filter0_f_1_61" x="943" y="-245" width="687" height="687" filterUnits="userSpaceOnUse" color-interpolation-filters="sRGB">
<feFlood flood-opacity="0" result="BackgroundImageFix"/>
<feBlend mode="normal" in="SourceGraphic" in2="BackgroundImageFix" result="shape"/>
<feGaussianBlur stdDeviation="75" result="effect1_foregroundBlur_1_61"/>
</filter>
<filter id="filter1_f_1_61" x="-262" y="146" width="702" height="702" filterUnits="userSpaceOnUse" color-interpolation-filters="sRGB">
<feFlood flood-opacity="0" result="BackgroundImageFix"/>
<feBlend mode="normal" in="SourceGraphic" in2="BackgroundImageFix" result="shape"/>
<feGaussianBlur stdDeviation="75" result="effect1_foregroundBlur_1_61"/>
</filter>
<filter id="filter2_b_1_61" x="-80" y="-80" width="1600" height="834" filterUnits="userSpaceOnUse" color-interpolation-filters="sRGB">
<feFlood flood-opacity="0" result="BackgroundImageFix"/>
<feGaussianBlur in="BackgroundImageFix" stdDeviation="40"/>
<feComposite in2="SourceAlpha" operator="in" result="effect1_backgroundBlur_1_61"/>
<feBlend mode="normal" in="SourceGraphic" in2="effect1_backgroundBlur_1_61" result="shape"/>
</filter>
<linearGradient id="paint0_linear_1_61" x1="720" y1="0" x2="720" y2="674" gradientUnits="userSpaceOnUse">
<stop stop-color="white"/>
<stop offset="1" stop-color="white" stop-opacity="0"/>
</linearGradient>
<linearGradient id="paint1_linear_1_61" x1="720" y1="0" x2="720" y2="674" gradientUnits="userSpaceOnUse">
<stop stop-color="white"/>
<stop offset="1" stop-color="white" stop-opacity="0.5"/>
</linearGradient>
<linearGradient id="paint2_linear_1_61" x1="720" y1="0" x2="720" y2="674" gradientUnits="userSpaceOnUse">
<stop stop-color="#06653D" stop-opacity="0.4"/>
<stop offset="1" stop-color="#06653D" stop-opacity="0.24"/>
</linearGradient>
<clipPath id="clip0_1_61">
<rect width="1440" height="674" fill="white"/>
</clipPath>
</defs>
</svg>
