<svg width="28" height="29" viewBox="0 0 28 29" fill="none" xmlns="http://www.w3.org/2000/svg">
<path d="M25.9937 8.63143L20.7437 3.38143C20.6213 3.2591 20.4654 3.17579 20.2957 3.14205C20.126 3.1083 19.9501 3.12563 19.7902 3.19184C19.6304 3.25805 19.4937 3.37017 19.3976 3.51403C19.3014 3.65789 19.2501 3.82703 19.2501 4.00006V6.62506H6.12506C5.42886 6.62506 4.76118 6.90162 4.2689 7.3939C3.77662 7.88619 3.50006 8.55386 3.50006 9.25006C3.50006 9.94625 3.77662 10.6139 4.2689 11.1062C4.76118 11.5985 5.42886 11.8751 6.12506 11.8751H19.2501V14.5001C19.2501 14.6731 19.3014 14.8422 19.3976 14.9861C19.4937 15.1299 19.6304 15.2421 19.7902 15.3083C19.9501 15.3745 20.126 15.3918 20.2957 15.3581C20.4654 15.3243 20.6213 15.241 20.7437 15.1187L25.9937 9.86868C26.075 9.78749 26.1395 9.69106 26.1835 9.58491C26.2276 9.47876 26.2502 9.36497 26.2502 9.25006C26.2502 9.13514 26.2276 9.02135 26.1835 8.9152C26.1395 8.80905 26.075 8.71262 25.9937 8.63143ZM21.8751 17.1251H8.75006V14.5001C8.75002 14.327 8.69868 14.1579 8.60253 14.014C8.50638 13.8702 8.36974 13.7581 8.20988 13.6918C8.05002 13.6256 7.87411 13.6083 7.7044 13.642C7.5347 13.6758 7.3788 13.7591 7.25643 13.8814L2.00643 19.1314C1.8424 19.2955 1.75024 19.518 1.75024 19.7501C1.75024 19.9821 1.8424 20.2046 2.00643 20.3687L7.25643 25.6187C7.3788 25.741 7.5347 25.8243 7.7044 25.8581C7.87411 25.8918 8.05002 25.8745 8.20988 25.8083C8.36974 25.7421 8.50638 25.6299 8.60253 25.4861C8.69868 25.3422 8.75002 25.1731 8.75006 25.0001V22.3751H21.8751C22.2198 22.3751 22.5611 22.3072 22.8796 22.1752C23.1981 22.0433 23.4875 21.85 23.7312 21.6062C23.975 21.3625 24.1683 21.0731 24.3002 20.7546C24.4322 20.4361 24.5001 20.0948 24.5001 19.7501C24.5001 19.4053 24.4322 19.064 24.3002 18.7455C24.1683 18.427 23.975 18.1377 23.7312 17.8939C23.4875 17.6501 23.1981 17.4568 22.8796 17.3249C22.5611 17.193 22.2198 17.1251 21.8751 17.1251Z" fill="white"/>
</svg>
