<svg width="28" height="29" viewBox="0 0 28 29" fill="none" xmlns="http://www.w3.org/2000/svg">
<path d="M14 1.375C11.4041 1.375 8.86654 2.14477 6.70815 3.58696C4.54975 5.02915 2.86749 7.079 1.87409 9.47728C0.880687 11.8756 0.620768 14.5146 1.1272 17.0606C1.63363 19.6066 2.88367 21.9452 4.71923 23.7808C6.55479 25.6163 8.89344 26.8664 11.4394 27.3728C13.9854 27.8792 16.6244 27.6193 19.0227 26.6259C21.421 25.6325 23.4708 23.9503 24.913 21.7919C26.3552 19.6335 27.125 17.0959 27.125 14.5C27.125 11.019 25.7422 7.68064 23.2808 5.21922C20.8194 2.75781 17.481 1.375 14 1.375ZM14.875 19.54V20.5287C14.875 20.7608 14.7828 20.9834 14.6187 21.1475C14.4546 21.3116 14.2321 21.4037 14 21.4037C13.7679 21.4037 13.5454 21.3116 13.3813 21.1475C13.2172 20.9834 13.125 20.7608 13.125 20.5287V19.5487C12.6905 19.4196 12.2901 19.1957 11.9527 18.893C11.6153 18.5904 11.3492 18.2167 11.1738 17.7987C11.1262 17.6673 11.1109 17.5265 11.129 17.3879C11.1471 17.2493 11.1981 17.1171 11.2778 17.0023C11.3574 16.8875 11.4635 16.7935 11.5869 16.728C11.7104 16.6626 11.8478 16.6277 11.9875 16.6263C12.1603 16.6215 12.3306 16.6679 12.4769 16.7598C12.6233 16.8517 12.7392 16.9848 12.81 17.1425C12.9037 17.3812 13.0676 17.586 13.2801 17.7297C13.4925 17.8734 13.7435 17.9493 14 17.9475C14.1697 17.9487 14.3379 17.9162 14.4949 17.8521C14.652 17.788 14.7948 17.6934 14.9152 17.5739C15.0356 17.4543 15.1311 17.3121 15.1963 17.1555C15.2615 16.9989 15.295 16.8309 15.295 16.6612C15.2997 16.4874 15.2697 16.3144 15.2069 16.1523C15.1442 15.9901 15.0498 15.8421 14.9293 15.7167C14.8088 15.5913 14.6646 15.4911 14.5051 15.422C14.3456 15.3528 14.1739 15.316 14 15.3138C13.4807 15.3069 12.9715 15.1695 12.5192 14.9144C12.0668 14.6592 11.6859 14.2944 11.4115 13.8535C11.137 13.4126 10.9778 12.9098 10.9485 12.3913C10.9192 11.8728 11.0207 11.3553 11.2438 10.8862C11.4209 10.5006 11.6816 10.1593 12.007 9.88687C12.3324 9.61447 12.7143 9.41784 13.125 9.31125V8.305C13.125 8.07294 13.2172 7.85038 13.3813 7.68628C13.5454 7.52219 13.7679 7.43 14 7.43C14.2321 7.43 14.4546 7.52219 14.6187 7.68628C14.7828 7.85038 14.875 8.07294 14.875 8.305V9.3375C15.3515 9.4755 15.787 9.72781 16.1438 10.0725C16.4416 10.3698 16.6767 10.7239 16.835 11.1138C16.8723 11.2414 16.8801 11.3758 16.8577 11.5069C16.8353 11.6379 16.7833 11.7622 16.7057 11.8701C16.6281 11.9781 16.5269 12.067 16.4099 12.13C16.2928 12.193 16.1629 12.2285 16.03 12.2337C15.8577 12.2418 15.6869 12.1987 15.539 12.11C15.3911 12.0213 15.2727 11.8908 15.1988 11.735C15.1272 11.5795 15.0296 11.4375 14.91 11.315C14.6757 11.0844 14.3635 10.9502 14.035 10.9388C13.6938 10.9433 13.368 11.0815 13.1275 11.3236C12.887 11.5657 12.751 11.8925 12.7488 12.2337C12.7501 12.5712 12.8788 12.8958 13.1092 13.1424C13.3396 13.389 13.6546 13.5395 13.9913 13.5638C14.7273 13.5803 15.435 13.8505 15.9947 14.3289C16.5544 14.8072 16.9316 15.4643 17.0625 16.1888C17.1605 16.9169 16.9934 17.6559 16.5919 18.2711C16.1903 18.8863 15.581 19.3367 14.875 19.54Z" fill="white"/>
</svg>
