<svg width="12" height="11" viewBox="0 0 12 11" fill="none" xmlns="http://www.w3.org/2000/svg">
<path d="M10.354 9.85399C10.4237 9.78434 10.479 9.70164 10.5167 9.61061C10.5544 9.51958 10.5739 9.42202 10.5739 9.32349C10.5739 9.22495 10.5544 9.12739 10.5167 9.03636C10.479 8.94534 10.4237 8.86264 10.354 8.79299L1.85401 0.292985C1.78486 0.22132 1.70213 0.164145 1.61064 0.124797C1.51916 0.0854473 1.42076 0.0647116 1.32117 0.0637999C1.22159 0.0628872 1.12282 0.0818176 1.03063 0.119485C0.938441 0.157152 0.854677 0.212803 0.784225 0.283189C0.713772 0.353575 0.658042 0.437286 0.620288 0.529441C0.582534 0.621594 0.563512 0.720345 0.56433 0.81993C0.565148 0.919515 0.58579 1.01794 0.625052 1.10946C0.664315 1.20098 0.721412 1.28377 0.793012 1.35299L9.29301 9.85299C9.43364 9.99344 9.62426 10.0723 9.82301 10.0723C10.0218 10.0723 10.2124 9.99344 10.353 9.85299L10.354 9.85399Z" fill="#06653D"/>
<path d="M11.073 0.822998C11.073 0.624085 10.994 0.43332 10.8533 0.292667C10.7127 0.152015 10.5219 0.072998 10.323 0.072998H1.323C1.12409 0.072998 0.93332 0.152015 0.792667 0.292667C0.652015 0.43332 0.572998 0.624085 0.572998 0.822998V9.823C0.572998 10.0219 0.652015 10.2127 0.792667 10.3533C0.93332 10.494 1.12409 10.573 1.323 10.573C1.52191 10.573 1.71268 10.494 1.85333 10.3533C1.99398 10.2127 2.073 10.0219 2.073 9.823V1.573H10.323C10.5219 1.573 10.7127 1.49398 10.8533 1.35333C10.994 1.21268 11.073 1.02191 11.073 0.822998Z" fill="#06653D"/>
</svg>
